<svg width="167" height="152" viewBox="0 0 167 152" fill="none" xmlns="http://www.w3.org/2000/svg">
<path d="M166 71.5L82.75 119.564L82.75 23.4356L166 71.5Z" fill="#62ABD9"/>
<path d="M166 71.5L82.75 119.564L82.75 23.4356L166 71.5Z" stroke="url(#paint0_radial)" stroke-linejoin="round"/>
<path d="M166 71.5L82.75 119.564L82.75 23.4356L166 71.5Z" stroke="url(#paint1_linear)" stroke-linejoin="round"/>
<path d="M83 151L83 94H111L111 151H83Z" fill="#62ABD9"/>
<path d="M111.25 103.064L28 151.129L28 55L111.25 103.064Z" fill="#62ABD9"/>
<path d="M111.25 103.064L28 151.129L28 55L111.25 103.064Z" fill="url(#paint2_linear)"/>
<path d="M111.25 103.064L28 151.129L28 55L111.25 103.064Z" stroke="url(#paint3_radial)"/>
<path d="M111.25 103.064L28 151.129L28 55L111.25 103.064Z" stroke="url(#paint4_linear)"/>
<path d="M28.2509 8.30161L110.001 55.5L28.2509 102.698L28.2509 8.30161Z" fill="#5B7BA6"/>
<path d="M28.2509 8.30161L110.001 55.5L28.2509 102.698L28.2509 8.30161Z" fill="url(#paint5_linear)"/>
<path d="M28.2509 8.30161L110.001 55.5L28.2509 102.698L28.2509 8.30161Z" stroke="url(#paint6_radial)"/>
<path d="M28.2509 8.30161L110.001 55.5L28.2509 102.698L28.2509 8.30161Z" stroke="url(#paint7_linear)"/>
<defs>
<radialGradient id="paint0_radial" cx="0" cy="0" r="1" gradientUnits="userSpaceOnUse" gradientTransform="translate(110.5 71.5) rotate(180) scale(55.5)">
<stop stop-color="white"/>
<stop offset="1" stop-color="white" stop-opacity="0"/>
</radialGradient>
<linearGradient id="paint1_linear" x1="166" y1="71.5" x2="55" y2="71.5" gradientUnits="userSpaceOnUse">
<stop stop-color="white"/>
<stop offset="1" stop-color="white" stop-opacity="0"/>
</linearGradient>
<linearGradient id="paint2_linear" x1="111.25" y1="103.064" x2="28" y2="103.064" gradientUnits="userSpaceOnUse">
<stop stop-color="white"/>
<stop offset="1" stop-color="white" stop-opacity="0"/>
</linearGradient>
<radialGradient id="paint3_radial" cx="0" cy="0" r="1" gradientUnits="userSpaceOnUse" gradientTransform="translate(69.625 103.064) rotate(180) scale(41.625 48.0644)">
<stop stop-color="white"/>
<stop offset="1" stop-color="white" stop-opacity="0"/>
</radialGradient>
<linearGradient id="paint4_linear" x1="111.25" y1="103.064" x2="28" y2="103.064" gradientUnits="userSpaceOnUse">
<stop stop-color="white"/>
<stop offset="1" stop-color="white" stop-opacity="0"/>
</linearGradient>
<linearGradient id="paint5_linear" x1="111.001" y1="55.5" x2="0.000907898" y2="55.5" gradientUnits="userSpaceOnUse">
<stop stop-color="white"/>
<stop offset="1" stop-color="white" stop-opacity="0"/>
</linearGradient>
<radialGradient id="paint6_radial" cx="0" cy="0" r="1" gradientUnits="userSpaceOnUse" gradientTransform="translate(55.5009 55.5) rotate(180) scale(55.5)">
<stop stop-color="white"/>
<stop offset="1" stop-color="white" stop-opacity="0"/>
</radialGradient>
<linearGradient id="paint7_linear" x1="111.001" y1="55.5" x2="0.000907898" y2="55.5" gradientUnits="userSpaceOnUse">
<stop stop-color="white"/>
<stop offset="1" stop-color="white" stop-opacity="0"/>
</linearGradient>
</defs>
</svg>

